<?xml version="1.0" encoding="UTF-8" standalone="no"?>
<!-- Created with Inkscape (http://www.inkscape.org/) -->

<svg
   xmlns:dc="http://purl.org/dc/elements/1.1/"
   xmlns:cc="http://creativecommons.org/ns#"
   xmlns:rdf="http://www.w3.org/1999/02/22-rdf-syntax-ns#"
   xmlns:svg="http://www.w3.org/2000/svg"
   xmlns="http://www.w3.org/2000/svg"
   xmlns:sodipodi="http://sodipodi.sourceforge.net/DTD/sodipodi-0.dtd"
   xmlns:inkscape="http://www.inkscape.org/namespaces/inkscape"
   width="553.39197"
   height="435.78549"
   id="svg2"
   version="1.1"
   inkscape:version="0.48.0 r9654"
   style="display:inline"
   sodipodi:docname="cat3.svg">
  <defs
     id="defs4" />
  <sodipodi:namedview
     id="base"
     pagecolor="#ffffff"
     bordercolor="#666666"
     borderopacity="1.0"
     inkscape:pageopacity="0.0"
     inkscape:pageshadow="2"
     inkscape:zoom="1.5213907"
     inkscape:cx="276.69598"
     inkscape:cy="217.89275"
     inkscape:document-units="px"
     inkscape:current-layer="layer2"
     showgrid="false"
     fit-margin-top="0"
     fit-margin-left="0"
     fit-margin-right="0"
     fit-margin-bottom="0"
     inkscape:window-width="1600"
     inkscape:window-height="878"
     inkscape:window-x="-8"
     inkscape:window-y="-8"
     inkscape:window-maximized="1" />
  <metadata
     id="metadata7">
    <rdf:RDF>
      <cc:Work
         rdf:about="">
        <dc:format>image/svg+xml</dc:format>
        <dc:type
           rdf:resource="http://purl.org/dc/dcmitype/StillImage" />
        <dc:title />
        <cc:license
           rdf:resource="http://creativecommons.org/licenses/publicdomain/" />
      </cc:Work>
      <cc:License
         rdf:about="http://creativecommons.org/licenses/publicdomain/">
        <cc:permits
           rdf:resource="http://creativecommons.org/ns#Reproduction" />
        <cc:permits
           rdf:resource="http://creativecommons.org/ns#Distribution" />
        <cc:permits
           rdf:resource="http://creativecommons.org/ns#DerivativeWorks" />
      </cc:License>
    </rdf:RDF>
  </metadata>
  <g
     inkscape:groupmode="layer"
     id="layer2"
     inkscape:label="レイヤー"
     style="display:inline"
     transform="translate(-100.81774,-278.88385)">
    <path
       inkscape:connector-curvature="0"
       id="path3000"
       d="m 437.28465,714.20092 c -39.85472,-2.57014 -72.13096,-17.09587 -81.68557,-36.76212 -1.19708,-2.46395 -2.82514,-4.72882 -3.61792,-5.03304 -0.79278,-0.30421 -6.44881,-0.0422 -12.56896,0.58233 -12.79455,1.30555 -37.92931,0.55143 -53.12755,-1.594 -54.61886,-7.71015 -92.27152,-31.87062 -110.59047,-70.96223 -8.00546,-17.08319 -12.30409,-42.75472 -10.18764,-60.84082 1.22037,-10.42872 3.6729,-17.7124 5.38691,-15.99839 0.5846,0.5846 2.11786,8.20177 3.40726,16.92705 4.51878,30.57853 8.94246,44.12577 19.80521,60.65223 22.63812,34.44136 64.06597,51.71192 124.04426,51.71192 19.39489,0 32.78853,-1.53798 48.14867,-5.52889 44.83167,-11.64824 87.81718,-45.03018 106.25075,-82.5128 6.62284,-13.46682 8.60327,-20.99943 8.66521,-32.95831 0.0433,-8.35588 -0.28611,-10.21876 -2.73501,-15.46811 -4.65924,-9.98732 -9.91147,-15.7691 -27.26758,-30.01672 -9.1516,-7.51255 -17.2504,-13.89369 -17.99734,-14.18032 -1.07475,-0.41242 -1.23802,0.49241 -0.78265,4.33729 0.86053,7.26586 -1.41346,11.89441 -7.07379,14.39825 -5.04136,2.23003 -8.43247,1.84849 -11.25019,-1.26578 -1.41438,-1.56323 -1.76505,-3.35528 -1.56266,-7.98589 0.29915,-6.84481 -1.1197,-10.54131 -6.42532,-16.73973 -5.86707,-6.85434 -13.07424,-9.05165 -18.11311,-5.52229 -3.49155,2.44558 -2.85882,6.16308 1.77749,10.4433 5.05742,4.66899 5.07186,6 0.0651,6 -7.80595,0 -13.38459,-3.75906 -15.11488,-10.18487 -3.66997,-13.62924 13.92357,-25.6714 29.80104,-20.39775 5.43044,1.8037 13.41844,8.17541 19.80131,15.79471 l 3.94743,4.7121 12.00581,-0.60404 c 9.73333,-0.48971 13.1404,-0.27646 18,1.12661 10.21481,2.94923 17.40784,7.43226 26.53089,16.53528 14.13445,14.10342 20.31702,28.64108 20.20843,47.51796 -0.16443,28.58077 -13.87923,56.88166 -40.59762,83.77435 -23.95352,24.10979 -56.81957,43.43896 -88.89751,52.28238 -3.2747,0.90278 -5.75,2.15028 -5.75,2.89787 0,1.9424 7.2342,8.12792 12.7141,10.87104 15.29296,7.65532 33.13249,10.97049 59.2859,11.01727 23.46441,0.042 33.58587,-1.75142 53.01697,-9.39384 32.23305,-12.67755 59.87426,-36.21372 83.9108,-71.44907 18.4205,-27.00275 30.86631,-51.68103 39.42564,-78.17548 4.16467,-12.89128 6.20463,-23.68129 7.15109,-37.82452 1.30461,-19.49513 -2.98777,-31.62761 -15.69403,-44.35937 -23.97668,-24.02482 -56.93992,-33.45666 -65.85095,-18.84208 -1.40993,2.31235 -1.95037,5.00662 -1.94601,9.70145 0.007,7.82533 2.09394,12.77488 10.91909,25.89977 3.36281,5.0012 6.54863,10.23576 7.07961,11.63234 1.44584,3.80286 -1.25405,4.25807 -7.37812,1.24398 -12.80258,-6.30106 -28.7412,-21.55567 -33.89775,-32.44301 -2.86064,-6.03985 -3.23634,-7.82226 -3.23634,-15.35411 0,-7.61215 0.35057,-9.23314 3.28675,-15.19736 3.46258,-7.03351 9.70341,-13.44761 16.43275,-16.88899 10.21624,-5.22458 27.01681,-6.38017 41.674,-2.86647 29.05841,6.96605 61.7221,33.81183 72.36277,59.47385 4.32899,10.44019 5.24897,16.05253 5.16352,31.5 -0.16882,30.51505 -8.53562,61.18719 -25.77789,94.5 -25.30277,48.88605 -54.9481,84.28267 -87.49429,104.46846 -24.85327,15.41449 -50.52281,24.33904 -77.57129,26.9693 -10.47745,1.01885 -15.11333,1.08628 -26.07632,0.37931 z m -161,-108.45101 c -25.80761,-15.26394 -35.71337,-22.74304 -44.21085,-33.3803 -8.60003,-10.76563 -12.84786,-24.36358 -10.88289,-34.83776 0.87421,-4.65998 4.97672,-9.46279 10.05237,-11.76834 8.29384,-3.76737 33.60977,-1.9039 50.47645,3.7155 14.45908,4.81727 28.25149,14.93998 42.06492,30.87283 12.09647,13.95246 13.84931,18.05515 10.48965,24.55203 -1.88413,3.6435 -4.31446,4.97998 -9.05587,4.97998 -5.37177,0 -9.22554,-2.85263 -18.97096,-14.04269 -11.04904,-12.68692 -17.43621,-18.41029 -24.55698,-22.00484 -6.83359,-3.44959 -18.29687,-6.56299 -29.19637,-7.92967 -11.50032,-1.44202 -12.95856,0.37923 -8.23829,10.28913 4.12572,8.66167 12.58457,17.6566 29.52882,31.4002 10.16887,8.24803 13.51746,11.92734 16.0278,17.61074 2.16309,4.89721 2.07318,7.69193 -0.24642,7.65887 -0.70476,-0.01 -6.68138,-3.2121 -13.28138,-7.11568 z m 122.71679,-11.42676 c -2.9735,-2.08273 -5.21679,-6.61253 -5.21679,-10.53411 0,-1.75677 1.97397,-7.51662 4.38659,-12.79966 5.95651,-13.04327 6.94234,-18.19406 6.44902,-33.69516 -0.44083,-13.85186 -2.38191,-20.5488 -6.15856,-21.24774 -5.85673,-1.08391 -26.12589,30.8639 -34.15691,53.83737 -3.3394,9.55268 -4.39044,11.55271 -6.20694,11.81127 -5.10295,0.72635 -8.6028,-12.66491 -6.5059,-24.89312 3.53808,-20.63245 20.79365,-51.57867 33.72705,-60.48625 4.75796,-3.27693 6.53955,-3.90549 12.06732,-4.25748 8.67784,-0.55256 13.91198,1.52914 19.87574,7.90488 9.43384,10.08555 13.0733,23.71898 12.25856,45.9207 -0.56393,15.36731 -2.18124,21.7386 -9.3031,36.649 -3.29888,6.90658 -5.20318,9.66396 -7.76945,11.25 -4.03379,2.49302 -10.29929,2.74477 -13.44663,0.5403 z M 189.17321,539.97908 c -7.3492,-4.48142 -9.81764,-11.50604 -9.13014,-25.98234 0.76766,-16.16418 4.84314,-24.83533 14.19347,-30.19858 9.19634,-5.27492 22.45679,-3.1846 27.98957,4.41216 3.90819,5.36612 1.747,18.95253 -3.73901,23.50551 -1.23296,1.02327 -1.51289,0.004 -1.91743,-6.98462 -0.42637,-7.36539 -0.74455,-8.4158 -3.18512,-10.51509 -5.22014,-4.49017 -13.94419,-2.34119 -17.0479,4.19938 -2.2498,4.74112 -3.17373,17.05446 -1.63053,21.73042 0.65189,1.97523 2.73187,5.53682 4.62219,7.91463 4.14949,5.21963 4.61977,9.895 1.23383,12.2666 -2.99409,2.09714 -7.61031,1.95606 -11.38893,-0.34807 z m -71.878,-2.06197 c -0.93872,-2.95764 1.08694,-12.3069 3.84151,-17.73012 5.2059,-10.24941 16.82449,-20.45375 31.06941,-27.28753 9.39157,-4.50546 16.14161,-5.83623 18.96839,-3.73961 2.72281,2.01951 1.61291,3.38738 -10.38987,12.80468 -5.775,4.53102 -17.14668,14.91647 -25.27041,23.07877 -8.12372,8.1623 -15.4059,14.84055 -16.18261,14.84055 -0.77671,0 -1.6931,-0.88503 -2.03642,-1.96674 z m -16.1449,-8.52274 c -1.01165,-2.63634 0.40976,-12.89802 2.57645,-18.6003 2.76227,-7.2697 7.88233,-14.66664 16.24819,-23.4737 8.92458,-9.39526 17.26041,-15.74452 26.42566,-20.12794 7.22751,-3.45667 15.31569,-4.80428 16.07016,-2.67753 0.22069,0.62208 -2.43091,3.15839 -5.89244,5.63624 -14.30722,10.24151 -26.53388,23.45096 -43.25576,46.73271 -5.33293,7.425 -10.11038,13.64992 -10.61655,13.83316 -0.50618,0.18323 -1.20624,-0.41195 -1.55571,-1.32264 z m 147.52681,-42.89549 c -7.35458,-2.13113 -15.00838,-6.79792 -18.06536,-11.01507 -5.42074,-7.47799 -3.56752,-8.66603 6.83524,-4.38187 6.55484,2.69948 9.14703,3.2322 15.83765,3.25484 9.36641,0.0317 14.77508,-2.37636 18.98626,-8.4531 3.50012,-5.05067 3.24374,-8.4694 -0.98626,-13.15151 -8.89619,-9.84701 0.70305,-19.09428 18.30574,-17.63452 4.64984,0.3856 5.98108,0.96319 8.36225,3.62818 3.58098,4.00781 3.66654,8.08626 0.30224,14.40609 -2.97944,5.59687 -2.32561,7.88765 2.75866,9.66521 9.53838,3.3348 25.20648,2.00595 35.51348,-3.012 7.87964,-3.8362 10.72772,-8.27673 12.36377,-19.27678 1.31577,-8.8466 2.59338,-10.6445 7.56408,-10.6445 7.44898,0 11.75824,9.11207 9.43417,19.94885 -2.18299,10.17892 -7.10986,17.55343 -15.447,23.12096 -14.92788,9.96882 -42.21019,12.73391 -57.52851,5.83058 -6.45207,-2.90768 -8.52601,-2.67777 -13.09704,1.45188 -2.19301,1.98125 -5.68481,4.32568 -7.75956,5.20984 -5.08625,2.16751 -17.59005,2.73063 -23.37981,1.05292 z m -108.82195,-30.882 c -8.04837,-3.16817 -17.28832,-12.24263 -21.51283,-21.12756 -5.80385,-12.20655 -7.18163,-24.96714 -5.62592,-52.10547 1.25626,-21.91449 4.43742,-50.5163 6.67334,-60 2.93045,-12.42955 7.12481,-17.5 14.4763,-17.5 4.41839,0 30.08861,10.45056 50.41859,20.52581 17.34396,8.59543 28.57536,16.11655 33.75809,22.60613 3.49553,4.37695 4.576,10.47415 2.36892,13.36806 -1.4885,1.95172 -1.60367,1.90591 -4.77046,-1.89738 -4.09333,-4.91608 -12.49996,-10.38729 -25.59312,-16.65656 -19.59124,-9.38068 -49.58259,-21.14455 -51.76844,-20.30576 -1.80557,0.69286 -2.17247,2.56724 -4.08618,20.87504 -2.44508,23.39122 -2.54336,75.39573 -0.16014,84.73468 1.84636,7.23514 6.21235,16.61862 10.9381,23.50838 2.59271,3.77997 3.01303,6.36529 1.00421,6.17674 -0.38004,-0.0357 -3.13424,-1.02662 -6.12046,-2.20211 z m 346.92948,-9.39524 c -1.375,-0.1994 -13.15927,-0.96172 -26.18726,-1.69405 -25.85176,-1.45317 -28.81274,-2.19459 -28.81274,-7.21454 0,-3.92944 4.29498,-7.11488 11.8289,-8.77308 23.60078,-5.19451 44.52546,-1.64162 58.57284,9.94531 9.2251,7.60929 8.90995,8.43409 -3.15174,8.24874 -5.3625,-0.0824 -10.875,-0.31298 -12.25,-0.51238 z m -279.98342,-8.18923 c -7.8427,-4.20609 -9.90418,-13.18671 -4.79813,-20.90248 7.01927,-10.60683 23.75519,-9.48511 26.79282,1.79578 3.72737,13.84239 -9.83788,25.62646 -21.99469,19.1067 z m 126.48342,-18.10845 c -11.18286,-2.62993 -15.36001,-11.14629 -10.60367,-21.61871 2.50465,-5.51468 6.40086,-8.4214 11.28819,-8.4214 5.71881,0 9.2998,2.25393 11.22485,7.06509 5.89883,14.74265 0.16014,25.81348 -11.90937,22.97502 z m 110,-7.77766 c -16.5,-0.14766 -30.62375,-0.50149 -31.38612,-0.78631 -2.77843,-1.03799 2.0942,-4.45486 9.84412,-6.90306 10.42103,-3.292 25.59936,-4.88872 41.36268,-4.35123 14.24845,0.48584 20.12416,2.04242 27.80687,7.36654 6.55747,4.54433 5.36215,5.44411 -6.87755,5.17707 -5.9125,-0.129 -24.25,-0.35535 -40.75,-0.50301 z M 234.24636,382.25098 c -1.95038,-4.6137 -1.34887,-9.47408 -3.6191,-18.80045 -2.07386,-8.51959 2.88114,-14.97965 10.24854,-13.36149 1.95014,0.42832 5.59602,3.70434 11.45318,10.29129 7.85582,8.83466 8.74602,8.47971 10.70567,8.49693 1.87925,0.0165 4.68734,-4.2951 6.66203,-10.22905 2.47849,-7.44787 5.76763,-11.09769 10.00099,-11.09769 4.42369,0 7.35454,2.48193 10.9938,9.30989 1.81349,3.40245 2.9902,3.72926 4.51322,5.47199 7.89393,9.03269 10.02001,15.55479 6.19807,19.01359 -1.00581,0.91025 -3.33513,1.65499 -5.17627,1.65499 -2.79406,0 -4.39911,-1.0672 -9.70766,-6.45465 -3.49807,-3.55005 -6.90625,-6.24017 -7.57373,-5.97804 -0.66748,0.26213 -2.24019,2.0569 -3.49491,3.98838 -1.25472,1.93148 -3.72972,4.39492 -5.5,5.47431 -6.14846,3.74889 -16.1345,1.84016 -21.3471,-3.92359 -2.98435,-3.2999 -4.33398,-2.55077 -5.54058,3.07539 -2.0097,9.3709 -5.62053,10.62754 -8.81615,3.0682 z m 184.76724,3.38287 c -1.0638,-1.7875 -3.98975,-7.075 -6.50212,-11.75 -2.51236,-4.675 -11.20229,-17.5 -19.31093,-28.5 -14.11635,-19.14991 -21.8405,-30.24853 -29.75214,-42.75 -2.26167,-3.57376 -4.33034,-5.75 -5.46578,-5.75 -2.65201,0 -15.01568,10.75537 -23.099,20.09422 -3.83839,4.43458 -11.3242,14.59915 -16.63514,22.58794 -9.47622,14.25424 -15.82807,22.31784 -17.5802,22.31784 -3.07497,0 0.91542,-14.9013 7.63195,-28.5 12.6593,-25.63078 40.41609,-54.5 52.39995,-54.5 4.1661,0 8.62208,4.18399 16.1292,15.14467 3.43038,5.00849 9.87807,13.88737 14.32821,19.73084 29.92471,39.29412 32.36885,43.05171 35.20559,54.12459 1.73988,6.79145 1.30533,13.39001 -1.20101,18.23673 -1.88269,3.64073 -3.78163,3.49038 -6.14858,-0.48683 z m -245.18922,-3.81283 c -6.09335,-4.81652 -7.74796,-7.74531 -6.10743,-10.81068 0.92321,-1.72502 2.06425,-2.12649 6.04387,-2.12649 2.69819,0 5.16742,-0.42332 5.48718,-0.94071 0.53173,-0.86035 -5.78707,-4.87058 -25.08022,-15.91714 -7.74324,-4.43351 -13.65422,-10.27212 -12.75962,-12.60342 1.32659,-3.45703 11.12149,-3.72851 19.63248,-0.54414 6.72945,2.51781 18.97258,10.33137 25.2389,16.10747 7.30414,6.73271 11.51152,15.14893 9.47524,18.95376 -0.81274,1.51861 -1.83019,1.71091 -6.50159,1.22878 l -5.53807,-0.57158 0.66171,4.13807 c 0.72645,4.54297 -0.59488,7.14891 -3.62483,7.14891 -0.98326,0 -4.10069,-1.82827 -6.92762,-4.06283 z m 172.60184,-17.37076 c -2.29286,-2.45453 -5.25333,-4.57482 -6.6322,-4.75 -7.46175,-0.94795 -7.73729,-18.63842 -0.51047,-32.7737 4.70081,-9.19452 13.05382,-14.34713 16.94705,-10.4539 3.10865,3.10865 1.54703,9.15552 -5.32244,20.60941 -6.71565,11.1974 -7.42485,13.45199 -3.87351,12.31414 5.69137,-1.82351 8.54318,-1.71918 10.65203,0.38967 2.38773,2.38773 2.56656,4.3514 0.97272,10.68109 -1.04138,4.13571 -4.66191,8.41688 -7.11804,8.41688 -0.53546,0 -2.83727,-1.99511 -5.11514,-4.43359 z"
       style="fill:#cecece"
       sodipodi:nodetypes="sscssssssssssssssssssssssssscssssssssssssssscsssssssssssssssssssssssssssscssssssssssssssssssssssssssssssssssssssssssscsssssssssssssssssssssssssssssssssscssssssssssssssssssssssssssssssssssssssssssssssssssssssssssssssssssscsssssssssssss" />
    <path
       inkscape:connector-curvature="0"
       id="path2998"
       d="m 425.87505,708.76531 c -10.19807,-1.18237 -26.79622,-5.29644 -35.61498,-8.82765 -13.73086,-5.4981 -26.45366,-15.3097 -30.83253,-23.77749 -1.95397,-3.39586 -4.60141,-5.58797 -7.5304,-8.05255 l -23.33916,0.53092 c -42.94651,0.97694 -70.04594,-4.11624 -98.01057,-18.4205 -24.78823,-12.67949 -40.60239,-28.77751 -51.85128,-52.782 -6.16895,-13.1642 -9.03513,-26.33529 -9.64068,-44.30219 -0.5843,-17.33637 0.78503,-20.57193 2.62718,-6.20768 7.53259,58.73608 39.58498,93.19609 98.46753,105.86396 18.15001,3.90476 45.57535,5.66084 64.40336,4.12384 44.56857,-3.63829 82.78132,-21.34069 114.27956,-52.94102 33.41407,-33.52236 44.99915,-68.64719 31.17324,-94.51424 -3.74244,-7.00179 -17.39715,-20.38945 -31.72167,-31.10129 l -12,-8.97357 5.88492,-0.30393 c 14.05581,-0.72592 27.18064,5.12839 39.67142,17.69538 16.23964,16.33874 21.47399,33.33658 17.42164,56.57446 -4.41426,25.31328 -17.86908,48.1445 -42.19189,71.59459 -21.75271,20.97221 -51.39827,38.14551 -80.22783,46.47497 -4.70704,1.35997 -9.12076,3.23184 -9.80826,4.15973 -2.43256,3.2831 -1.45054,6.43876 3.38532,10.87856 5.90544,5.42178 12.15121,8.80486 23.06794,12.49495 15.46121,5.22622 24.31194,6.3514 49.79674,6.33059 21.71175,-0.0177 23.54991,-0.1672 32.81787,-2.66865 12.32186,-3.32572 25.23196,-8.02836 33.79174,-12.30901 9.90762,-4.95468 26.23811,-16.26081 36.59476,-25.33573 37.13872,-32.54249 74.30486,-98.20364 81.823,-144.55609 1.93722,-11.94379 1.90871,-30.43538 -0.0586,-37.98827 -2.48919,-9.55663 -7.25608,-17.3537 -15.95463,-26.09653 -19.75591,-19.85649 -45.11342,-30.24066 -61.70619,-25.26935 -6.08393,1.82279 -11.46383,7.84955 -12.81438,14.35513 -1.93916,9.34089 1.26917,18.43161 11.74777,33.28698 2.45102,3.47477 4.19886,6.57531 3.88409,6.89008 -0.97654,0.97654 -11.07013,-6.55951 -18.3065,-13.66796 -3.94493,-3.87519 -8.38325,-9.51279 -10.36026,-13.15971 -3.28898,-6.06717 -3.45867,-6.8708 -3.45867,-16.38019 0,-8.39054 0.35412,-10.6619 2.20021,-14.11257 3.11572,-5.82381 11.39895,-12.8988 18.09816,-15.45825 8.62485,-3.29515 22.29702,-3.72294 33.49204,-1.04793 26.0187,6.21708 54.94274,28.37246 66.48089,50.92337 6.52502,12.75292 7.71773,18.40699 7.63536,36.19538 -0.0617,13.31981 -0.51167,17.60987 -3.19916,30.5 -6.88608,33.02797 -18.2919,58.67357 -42.69577,96 -16.27644,24.8953 -35.56007,46.42133 -53.51173,59.73438 -16.4304,12.18488 -39.20817,23.39216 -59.36459,29.20901 -17.1586,4.95172 -44.1232,6.80578 -64.54501,4.43807 z M 270.57974,597.92112 c -19.29867,-12.08397 -26.53012,-17.69721 -33.29027,-25.84076 -12.64063,-15.2274 -15.88469,-32.49186 -7.44046,-39.59721 4.55088,-3.82931 10.03621,-4.92254 21.43564,-4.27214 18.83201,1.07449 37.40972,7.39836 50.22958,17.0982 7.72477,5.84477 23.58807,22.61692 25.79994,27.2781 3.01927,6.36264 -1.73386,11.98308 -7.79749,9.22031 -1.31042,-0.59707 -7.6405,-6.6442 -14.06685,-13.43807 -12.3109,-13.01495 -19.11325,-18.01393 -29.34479,-21.56518 -7.1978,-2.49827 -16.71135,-4.5275 -25.53464,-5.44652 -6.54848,-0.68207 -6.78921,-0.62438 -9.75,2.33641 -3.87544,3.87544 -3.8165,6.11687 0.39179,14.89809 4.17676,8.71544 12.49161,17.6334 28.49589,30.56282 11.40321,9.21234 17.61729,15.66397 16.93661,17.58407 -0.19802,0.55858 -7.42725,-3.40957 -16.06495,-8.81812 z m 131.8599,-12.86601 c -2.53546,-2.80165 -1.99425,-7.90901 1.83279,-17.29602 5.75805,-14.12338 6.92867,-32.37517 2.93828,-45.81227 -2.53829,-8.54736 -8.85347,-11.34941 -15.3549,-6.81297 -8.37485,5.84362 -26.87378,37.98758 -31.07715,54 -1.26332,4.8125 -2.65763,8.75 -3.09847,8.75 -1.27111,0 -2.88387,-7.02592 -2.88996,-12.59004 -0.0127,-11.60076 7.7384,-31.76804 18.89319,-49.15737 8.62483,-13.44536 16.34936,-19.25259 25.60895,-19.25259 11.22971,0 20.37075,9.72802 24.05052,25.5949 1.8781,8.09819 2.11075,27.85358 0.42421,36.02068 -1.94941,9.44003 -6.93442,22.12149 -9.97557,25.37705 -3.33353,3.56856 -8.6861,4.1243 -11.35189,1.17863 z M 189.41319,533.8063 c -3.41981,-2.69003 -4.44996,-4.71308 -5.67538,-11.14554 -0.69654,-3.65624 -0.66352,-7.58035 0.1075,-12.77691 2.44249,-16.46212 9.60705,-25.06547 20.94675,-25.15331 10.34637,-0.0801 16.02563,4.02756 15.95255,11.53817 l -0.04,4.11514 -1.58155,-3 c -3.78864,-7.18653 -9.09322,-10.02128 -15.88578,-8.48931 -8.1498,1.83808 -12.75364,9.95218 -12.75071,22.47262 0.002,6.82853 0.47523,9.09442 3.19565,15.28832 1.75657,3.99939 2.92167,7.71189 2.5891,8.25 -0.99193,1.60497 -4.04173,1.11617 -6.85809,-1.09918 z m -67.61623,-2.92245 c 0.0307,-10.6196 18.518,-29.50382 35.87253,-36.6427 5.8543,-2.4082 9.6484,-3.02912 8.65133,-1.41583 -0.32002,0.51781 -5.23292,4.53196 -10.91755,8.92033 -5.68463,4.38837 -15.57321,13.30221 -21.97462,19.80853 -9.91239,10.07484 -11.63785,11.45882 -11.63169,9.32967 z m -16.01152,-13.25 c 0.001,-3.15745 4.99468,-13.3101 9.4681,-19.25 8.22152,-10.91669 21.02124,-22.31736 30.27355,-26.96453 2.77641,-1.39451 5.33557,-2.53547 5.68703,-2.53547 0.35145,0 -2.98594,3.19948 -7.41643,7.10995 -9.94517,8.77788 -21.04223,21.31315 -30.22306,34.14005 -3.83819,5.3625 -7.16111,9.75 -7.38426,9.75 -0.22315,0 -0.40536,-1.0125 -0.40493,-2.25 z m 312.06624,-34.62476 c -0.55184,-1.03111 -1.29552,-3.84361 -1.65262,-6.25 -0.85585,-5.76715 -4.2452,-11.54278 -9.75313,-16.61981 -5.34828,-4.92988 -10.62946,-6.65523 -15.90907,-5.19746 -7.16914,1.9795 -9.95714,7.23465 -6.73523,12.69538 1.13536,1.92429 1.83505,3.72796 1.55486,4.00814 -1.02217,1.02218 -5.29865,-2.68774 -6.53285,-5.66736 -4.90025,-11.83024 12.60518,-22.56048 26.46101,-16.21971 9.56847,4.37877 22.5,19.93409 22.5,27.06522 0,6.29546 -7.40595,10.90739 -9.93297,6.1856 z m -171.56703,-1.10302 c -5.73801,-1.89757 -12.56507,-6.27091 -11.48932,-7.35993 0.28088,-0.28435 2.98088,0.33563 6,1.37771 6.12797,2.11515 18.16578,2.59514 22.67422,0.90411 4.60471,-1.72713 10.35429,-6.11922 11.88469,-9.07867 2.00985,-3.88663 1.87565,-12.2513 -0.22449,-13.993 -0.9102,-0.75484 -2.28404,-2.87754 -3.05298,-4.71711 -1.23123,-2.94553 -1.20346,-3.64169 0.23268,-5.83353 0.89692,-1.36887 3.12673,-3.11391 4.95513,-3.87786 9.13864,-3.81837 17.06885,-2.3617 19.53329,3.58798 1.21729,2.9388 1.12122,3.93751 -0.9286,9.65304 -3.0289,8.44555 -2.37639,10.84147 3.70269,13.59559 6.74867,3.05748 21.88267,3.02153 31.89622,-0.0758 13.06444,-4.04099 18.97388,-10.75676 21.51861,-24.45477 0.68968,-3.7125 1.7479,-6.75 2.3516,-6.75 0.6037,0 2.11296,1.08077 3.35392,2.40171 5.1976,5.53259 3.06568,18.07491 -4.5033,26.49344 -8.36673,9.30582 -21.88791,14.26926 -38.99163,14.3133 -9.82207,0.0253 -20.15379,-1.95096 -23.1708,-4.43211 -2.25873,-1.85755 -9.86162,-0.244 -13.9348,2.95737 -6.56389,5.15897 -10.31924,6.58224 -18.30713,6.93835 -5.51454,0.24585 -9.08837,-0.19091 -13.5,-1.64984 z M 134.04737,447.9592 c -7.18747,-5.20657 -12.74234,-14.49451 -15.6332,-26.13924 -4.34687,-17.50971 0.76388,-91.67611 7.34577,-106.60059 3.59723,-8.15673 6.72091,-8.18266 26.40578,-0.21918 32.75191,13.24975 57.6729,27.32774 63.3408,35.78154 3.55471,5.30193 2.74331,5.45845 -3.47187,0.66973 -3.1625,-2.43666 -12.5,-7.78069 -20.75,-11.87562 -14.61219,-7.25283 -47.71947,-20.69199 -50.97458,-20.69199 -3.35483,0 -7.25582,2.902 -7.84221,5.83393 -2.59403,12.97015 -3.98896,35.23872 -4.08208,65.16607 -0.1132,36.37816 0.22597,38.90878 7.07409,52.7818 1.97698,4.00499 3.38068,7.49564 3.11933,7.75699 -0.26135,0.26135 -2.30068,-0.8472 -4.53183,-2.46344 z m 349.23728,-6.11698 c -3.3,-0.42866 -14.08963,-1.11089 -23.97695,-1.51606 -9.88732,-0.40517 -19.083,-1.03247 -20.43484,-1.39401 -4.10589,-1.09808 -3.5468,-2.95743 1.57283,-5.2307 6.12516,-2.71975 26.12383,-3.70928 37.20179,-1.84074 7.21867,1.21759 19.70682,6.59474 22.1484,9.53668 1.06947,1.28862 0.45206,1.46901 -4.63879,1.35534 -3.22984,-0.0721 -8.57244,-0.48184 -11.87244,-0.91051 z m -276.38927,-7.51865 c -3.26333,-2.74591 -4.77523,-7.65599 -3.68947,-11.982 1.14184,-4.54948 6.62091,-9.51956 11.16659,-10.12927 11.82545,-1.58612 17.707,12.5767 8.88605,21.39765 -4.79538,4.38811 -11.90609,4.39421 -16.36317,0.71362 z m 122.98567,-17.70446 c -4.12096,-2.11784 -6.36279,-6.10042 -6.26195,-11.12424 0.16244,-8.09265 4.91246,-13.61102 11.71589,-13.61102 4.13905,0 9.00018,5.51179 9.84761,11.16572 1.609,10.73494 -6.61906,18.03164 -15.30155,13.56954 z m 96.20948,-8.81715 c -4.81798,-1.65091 27.46574,-5.56622 38.15871,-4.62782 8.01688,0.70354 15.88476,2.51346 18.16068,4.17765 1.56314,1.14299 -2.47375,1.32516 -26.38787,1.19075 -15.52833,-0.0873 -28.99751,-0.42054 -29.93152,-0.74058 z M 237.15121,380.77268 c -0.59242,-1.50057 -1.75255,-5.32557 -2.57807,-8.5 -1.31828,-5.72292 -1.63126,-15.58048 2.02599,-17.69279 3.60956,-1.93178 6.7164,-0.14014 11.94124,6.88621 5.95525,8.00859 8.22308,9.12334 11.73848,10.00565 5.71674,1.43481 11.38276,-4.14228 12.90313,-12.70061 0.76345,-4.29757 3.57499,-7.13729 7.06646,-7.13729 3.55255,0 5.25611,1.72393 8.58046,8.68307 1.59398,3.33681 2.95384,4.40101 4.92021,7.11061 3.79368,5.22757 4.21749,8.81746 1.11092,9.40995 -1.24356,0.23718 -3.64721,-1.52088 -7.16396,-5.23978 -3.51365,-3.71563 -6.07764,-5.59157 -7.62853,-5.58141 -2.94461,0.0193 -3.65658,0.5449 -7.59393,5.60594 -6.25344,8.03811 -12.14374,8.27928 -21.75551,0.81506 -5.24519,-4.07325 -6.26063,-4.50646 -8.34113,-3.55852 -1.99242,0.9078 -2.38006,1.83763 -2.43918,5.85077 -0.0387,2.62429 -0.43909,5.67144 -0.88986,6.77144 -0.76609,1.86946 -0.88989,1.82192 -1.89672,-0.7283 z m 183.15367,-0.82508 c -1.48142,-4.66755 -14.07899,-23.97286 -26.40361,-40.46254 -7.35779,-9.84433 -17.21002,-23.79433 -21.89385,-31 -4.68383,-7.20566 -9.01256,-13.43182 -9.61941,-13.8359 -0.60685,-0.40408 -2.77931,-0.74158 -4.82768,-0.75 -3.11147,-0.0128 -4.84487,0.94911 -10.5338,5.84542 -12.62438,10.86548 -23.04123,23.63687 -35.17477,43.12545 -1.8881,3.0326 -4.31449,6.63882 -5.39198,8.01382 l -1.95908,2.5 0.63418,-3.33601 c 2.89981,-15.25415 26.3531,-47.92242 43.93559,-61.19825 7.17608,-5.41836 8.5571,-6.09064 11.52294,-5.60935 4.35076,0.70603 4.88638,1.19768 10.74545,9.86322 2.70739,4.00421 12.37349,17.18039 21.48023,29.28039 24.94692,33.14664 27.57976,37.36464 29.97126,48.01618 1.14692,5.10827 0.60084,11.48382 -0.98363,11.48382 -0.48801,0 -1.16384,-0.87131 -1.50184,-1.93625 z m -246.61542,-2.34892 c -1.86503,-1.25684 -3.53373,-3.02648 -3.70822,-3.93253 -0.49662,-2.57875 2.9254,-3.86352 7.16942,-2.69168 3.1627,0.87326 3.51644,1.26051 2.64273,2.89305 -0.55481,1.03667 -1.00874,2.81443 -1.00874,3.95059 0,2.63881 -0.91215,2.59953 -5.09519,-0.21943 z m 16.59519,-4.20631 c -0.55,-0.18347 -2.23617,-0.60618 -3.74704,-0.93936 -2.47142,-0.545 -2.62192,-0.81161 -1.5,-2.6572 1.09513,-1.80153 0.89803,-2.33277 -1.61798,-4.36097 -1.57577,-1.27026 -7.65077,-5.16103 -13.5,-8.64617 -14.9764,-8.92335 -22.13498,-13.80076 -22.13498,-15.08137 0,-1.76684 9.47601,-0.20995 15.49555,2.54588 11.10315,5.08319 23.02178,14.76431 28.14441,22.8608 3.42367,5.41123 3.01459,7.66428 -1.13996,6.27839 z m 156.58621,-14.12606 c -1.13243,-1.43964 -1.77164,-3.12714 -1.42048,-3.75 2.95294,-5.23759 8.57042,-6.40304 10.49569,-2.17752 0.84429,1.85301 0.80929,3.20156 -0.14276,5.5 -1.66384,4.01687 -5.94779,4.22191 -8.93245,0.42752 z m -9.30254,-7.40305 c -1.3154,-8.96236 4.34955,-24.85761 10.06074,-28.22941 1.6303,-0.9625 3.23224,-1.75 3.55988,-1.75 1.95279,0 -0.16959,6.47988 -5.40429,16.5 -3.3,6.31677 -6,12.6134 -6,13.99252 0,3.52211 -1.68121,3.13289 -2.21633,-0.51311 z"
       style="fill:#9a9a9a"
       sodipodi:nodetypes="ssccsssssssssscsssssssssssssssssssssssssssssssssssssssssssssssssssssssssssscsssccsscssccsssssscsssssscssssscsssscssssssssssssssssssssccssssssssssssssssssssscssccsssssssssssccsssssssssssscsssssssssscssssssssssssssssssssssssssssssssss" />
  </g>
</svg>
